<svg width="240" height="94" viewBox="0 0 240 94" fill="none" xmlns="http://www.w3.org/2000/svg">
<path d="M22.8745 0C10.8578 1.22972 1.3309 10.7289 0.0148923 22.6809C6.3145 25.1835 13.8217 23.8855 18.9132 18.794C23.9831 13.681 25.3124 6.27803 22.8745 0ZM28.3847 0.0297845C25.8821 6.32939 27.1801 13.8068 32.2715 18.8983C37.363 23.9898 44.7876 25.2893 51.0656 22.8298C49.8359 10.8563 40.3367 1.34579 28.3847 0.0297845ZM6.12072 26.7018C4.03927 26.7341 1.96189 27.1314 0 27.8932C1.10028 39.9747 10.5651 49.6253 22.5171 51.006C25.2354 44.6633 23.9934 37.0159 18.794 31.795C15.3085 28.3243 10.6999 26.631 6.12072 26.7018ZM68.847 55.5928C65.0715 55.5928 61.9313 57.7622 59.8818 60.5669L60.0009 56.4566H53.6271L48.4594 82.9946H56.8736L59.1372 71.5574C60.0002 67.1347 63.1271 62.6071 65.8238 62.6071C67.2261 62.6071 67.7598 63.4688 67.7598 65.3026C67.7598 66.0577 67.6479 66.8115 67.4322 67.9981L64.5282 82.9946H72.9423L75.1017 71.5574C75.9647 67.1347 79.3037 62.6071 81.8926 62.6071C83.2949 62.6071 83.8286 63.4688 83.8286 65.3026C83.8286 66.0577 83.728 66.8115 83.6201 67.9981L80.597 82.9946H89.0111L92.1385 66.9259C92.3542 65.6314 92.4661 64.4417 92.4661 63.4709C92.4661 58.5088 89.8777 55.5928 84.9157 55.5928C81.1403 55.5928 78.0037 57.7586 75.8463 60.6711C75.0912 57.435 72.8382 55.5928 68.847 55.5928ZM143.279 55.5928C140.474 55.5928 138.209 57.5356 135.728 60.8796L135.832 56.4566H129.458L124.291 82.9946H132.705L134.864 71.7807C135.727 67.2502 138.746 63.7985 141.119 63.7985C141.982 63.7985 142.944 63.9104 143.591 64.1261L145.974 55.9205C145.327 55.7047 144.681 55.5928 143.279 55.5928ZM160.032 55.5928C147.735 55.5928 144.068 66.6054 144.068 74.372C144.068 81.2757 147.631 83.8584 155.505 83.8584C158.849 83.8584 162.846 83.2059 165.542 82.2351V76.0995C163.277 76.9625 159.821 77.4994 157.233 77.4994C153.673 77.4994 152.378 76.5217 152.378 74.1486C152.378 73.6092 152.478 73.0796 152.586 72.5402C166.178 72.1087 169.965 67.681 169.965 62.9347C169.965 59.0514 167.475 55.5928 160.032 55.5928ZM217.248 55.5928C205.059 55.5928 200.524 65.3101 200.524 73.5082C200.524 80.1962 204.195 83.8584 211.962 83.8584C224.151 83.8584 228.581 74.156 228.581 65.9579C228.581 59.3778 224.907 55.5928 217.248 55.5928ZM111.558 55.8162C99.4765 55.8162 94.9531 65.7347 94.9531 74.1486C94.9531 79.9736 97.531 83.8584 103.248 83.8584C106.7 83.8584 109.832 82.0275 111.99 78.8992V82.9946H118.349L123.204 57.7522C119.86 56.6735 116.089 55.8162 111.558 55.8162ZM187.613 55.8162C175.639 55.8162 170.993 65.3065 170.993 73.6125C170.993 79.3296 173.69 83.218 179.407 83.218C182.643 83.218 185.343 81.5928 186.853 79.4354C186.53 80.4062 186.205 81.808 185.99 82.9946C185.342 86.5543 183.614 87.4176 179.839 87.4176C177.034 87.4176 174.334 87.2087 171.961 86.7773L170.457 93.1363C172.938 93.6756 175.963 94 179.199 94C187.828 94 192.89 90.3294 194.508 82.5627L199.259 57.7522C195.915 56.6735 192.143 55.8162 187.613 55.8162ZM159.392 61.4306C160.902 61.4306 161.864 62.3885 161.864 63.5751C161.864 65.301 160.257 67.1343 153.569 67.1343C154.324 63.8983 156.372 61.4306 159.392 61.4306ZM216.176 62.3986C218.765 62.3986 219.84 63.6857 219.84 66.5982C219.84 70.913 217.899 77.1717 213.153 77.1717C210.348 77.1717 209.266 75.7767 209.266 72.9721C209.266 68.5494 211.322 62.3986 216.176 62.3986ZM110.694 62.6071C111.881 62.6071 112.854 62.9351 113.717 63.3666L112.854 67.7896C111.991 72.3202 108.759 76.8441 106.063 76.8441C104.445 76.8441 103.799 75.4419 103.799 72.853C103.799 68.646 105.624 62.6071 110.694 62.6071ZM186.749 62.6071C187.936 62.6071 188.894 62.9351 189.757 63.3666L189.013 67.2535C188.15 71.784 184.904 76.308 182.207 76.308C180.589 76.308 179.943 74.9057 179.943 72.3169C179.943 68.2178 181.787 62.6071 186.749 62.6071ZM234.702 73.6125C231.898 73.6125 229.52 75.771 229.52 78.8992C229.52 81.4881 231.577 83.5307 234.166 83.5307C236.971 83.5307 239.349 81.3722 239.349 78.244C239.349 75.6551 237.291 73.6125 234.702 73.6125Z" fill="#8ACF28"/>
<path d="M44.9153 26.821C40.3009 26.7215 35.6679 28.4288 32.1676 31.9588C26.9898 37.115 25.7231 44.6864 28.3551 51.0507C40.3719 49.7131 49.8942 40.1318 51.0807 28.072C49.0986 27.2832 47.0128 26.8662 44.9153 26.821Z" fill="#F58C19"/>
</svg>
